<mxfile host="app.diagrams.net" modified="2023-04-25T07:00:10.121Z" agent="Mozilla/5.0 (Macintosh; Intel Mac OS X 10_15_7) AppleWebKit/537.36 (KHTML, like Gecko) Chrome/112.0.0.0 Safari/537.36" version="21.2.1" etag="CDAH8M6VCaNH9l6Z-pGE" type="github">
  <diagram name="第 1 页" id="e2AUM90ARl1bqOUzbiWh">
    <mxGraphModel>
      <root>
        <mxCell id="0" />
        <mxCell id="1" parent="0" />
      </root>
    </mxGraphModel>
  </diagram>
</mxfile>
